<svg xmlns="http://www.w3.org/2000/svg" viewBox="0 0 32 32" id="fix">
  <path fill="#7de7c8" d="M17.0449,18.7461A1.1584,1.1584,0,0,0,15.92,19.94v9.9862h2.25V19.94A1.1582,1.1582,0,0,0,17.0449,18.7461Z"></path>
  <path fill="#586597" fill-rule="evenodd" d="M3,7.5a.5.5,0,0,0-.5.5V29.5H2v1H30v-1h-.5V8a.5.5,0,0,0-.5-.5H27a.5.5,0,0,0-.5.5V29.5H5.5V8A.5.5,0,0,0,5,7.5Z"></path>
  <path fill="#586597" fill-rule="evenodd" d="M13,1A4.0084,4.0084,0,0,0,9.2949,3.5H8A1.5077,1.5077,0,0,0,6.5,5v.5a1.0082,1.0082,0,0,0,.8613.99A3.6244,3.6244,0,0,0,7,8.0625V11a2.5082,2.5082,0,0,0,1.5,2.2891V15a1.0077,1.0077,0,0,0,1,1h1a1.0076,1.0076,0,0,0,1-1V13.5h9V15a1.0077,1.0077,0,0,0,1,1h1a1.0076,1.0076,0,0,0,1-1V13.2891A2.5087,2.5087,0,0,0,25,11V8.0625A3.6244,3.6244,0,0,0,24.6387,6.49,1.0094,1.0094,0,0,0,25.5,5.5V5A1.5077,1.5077,0,0,0,24,3.5H22.6543A3.9408,3.9408,0,0,0,19,1Z"></path>
  <path fill="#91a6b8" fill-rule="evenodd" d="M21.5 13.5h1V15h-1zM9.5 13.5h1V15h-1z"></path>
  <path fill="#c9aa90" fill-rule="evenodd" d="M23.8867,11.5742A1.4913,1.4913,0,0,1,22.5,12.5H9.5a1.4922,1.4922,0,0,1-1.3867-.9238A2.4865,2.4865,0,0,0,9.5,12h13A2.478,2.478,0,0,0,23.8867,11.5742Z"></path>
  <path fill="#fbda74" fill-rule="evenodd" d="M9.207,5.8457l.6875.2305a3.4111,3.4111,0,0,0,1.0783.1738H21.0275a3.4112,3.4112,0,0,0,1.0781-.1738l.6875-.2305.1582.1191A2.62,2.62,0,0,1,24,8.0625V9.5A1.4924,1.4924,0,0,1,22.5,11H9.5A1.4925,1.4925,0,0,1,8,9.5V8.0625A2.62,2.62,0,0,1,9.049,5.9648Z"></path>
  <path fill="#c9aa90" fill-rule="evenodd" d="M22.9141 4.5H24a.4926.4926 0 01.5.5v.5h-.5625a3.6161 3.6161 0 00-.3867-.3359l-.6094-.4572c-.01-.07-.019-.1379-.027-.207zM8 4.5H9.0332A3.93 3.93 0 009 5V4.75L8.45 5.1641A3.6045 3.6045 0 008.0627 5.5H7.5V5A.4927.4927 0 018 4.5z"></path>
  <path fill="#d1edf1" fill-rule="evenodd" d="M13,2h6a2.9924,2.9924,0,0,1,3,3v.057l-.2109.07a2.4054,2.4054,0,0,1-.7618.123H10.9727a2.404,2.404,0,0,1-.7618-.123L10,5.057V5a2.9927,2.9927,0,0,1,3-3Z"></path>
  <path fill="#586597" d="M21.4994,7.25a1.5,1.5,0,1,1-1.5,1.5A1.5077,1.5077,0,0,1,21.4994,7.25Z"></path>
  <path fill="#fcbf86" d="M21.4994,8.25a.5.5,0,1,0,.5.5A.4927.4927,0,0,0,21.4994,8.25Z"></path>
  <path fill="#586597" d="M10.4994,7.25a1.5,1.5,0,1,1-1.5,1.5A1.5077,1.5077,0,0,1,10.4994,7.25Z"></path>
  <path fill="#fcbf86" d="M10.4994,8.25a.5.5,0,1,0,.5.5A.4927.4927,0,0,0,10.4994,8.25Z"></path>
  <path fill="#586597" fill-rule="evenodd" d="M18.4994,7.25a.5.5,0,0,1,.4844.6231l-.5,2a.5.5,0,0,1-.4844.3769h-4a.5.5,0,0,1-.4844-.3769l-.5-2a.5.5,0,0,1,.4844-.6231Z"></path>
  <path fill="#987bad" fill-rule="evenodd" d="M17.8588,8.25H14.14l.25,1h3.2188Z"></path>
  <path fill="#eea0c8" fill-rule="evenodd" d="M27.5 8.5h1v21h-1zM3.5 8.5h1v21h-1z"></path>
  <path fill="#586597" fill-rule="evenodd" d="M13.4983,14.7437a.5.5,0,0,1,.4607.3027l.9545,2.1485a5.0883,5.0883,0,0,0,.6286.5235,2.6646,2.6646,0,0,0,1.2084.5313,2.0069,2.0069,0,0,1,1.9989,2V30a.5.5,0,0,1-.4982.5019h-2.25a.5.5,0,0,1-.5-.5V20.75a.5.5,0,1,1,.9995-.0271c0,.009,0,.018,0,.0271V29.5H17.75V20.25a.9907.9907,0,0,0-.9994-.9981,3.161,3.161,0,0,1-1.79-.7187,7.1223,7.1223,0,0,1-.8121-.6778.4979.4979,0,0,1-.1034-.1523l-.9995-2.25a.5.5,0,0,1,.4529-.709Z"></path>
  <path fill="#586597" d="M17.75,14a1.751,1.751,0,1,1-1.749,1.75A1.7572,1.7572,0,0,1,17.75,14Z"></path>
  <path fill="#67bde1" d="M17.75,15.0015a.749.749,0,1,0,.75.748A.7408.7408,0,0,0,17.75,15.0015Z"></path>
  <path fill="#586597" fill-rule="evenodd" d="M21.7494 15v1h5.25V15zM4.9994 15v1h5.5V15z"></path>
</svg>
